<svg width="23" height="21" viewBox="0 0 23 21" fill="none" xmlns="http://www.w3.org/2000/svg">
<path d="M23 17.1201C22.848 18.1219 22.7815 18.5565 22.2139 19.5332L13.4971 21C13.6974 19.9443 13.9653 19.13 14.3994 18.6416L23 17.1201ZM10.8594 10.209L13.4639 9.74805V3.03906C14.4343 2.15101 15.0308 1.7521 16.2021 1.24805V9.26367L23 8.06055C22.848 9.06267 22.7816 9.49775 22.2139 10.4746L16.2021 11.5098V13.7627L23 12.5908C22.848 13.5928 22.7815 14.0272 22.2139 15.0039L16.2021 16.0146V16.0371L13.4639 16.498V11.9824L10.8594 12.4307V15.2773L10.8145 15.2842C10.2154 16.1404 9.36966 17.1691 8.55469 17.9902L0 19.3184C0.0767052 18.421 0.23665 17.9155 0.734375 17.0117L8.12109 15.7061V12.9023L1.27539 14.083C1.3521 13.1857 1.51203 12.6802 2.00977 11.7764L8.12109 10.6934V1.79102C9.09157 0.902935 9.68794 0.504085 10.8594 0V10.209Z" fill="black"/>
</svg>
